    <svg
      version="1.0"
      xmlns="http://www.w3.org/2000/svg"
      xmlnsXlink="http://www.w3.org/1999/xlink"
      width="73.400025"
      height="34.2"
      viewBox="0 0 734 342"
      fill="#303131"
    >
      <path d="M262 11.7c-9.1 3.2-15.8 9.2-20.8 18.7l-2.7 5.1v271l3.4 6.3c6 11 15.6 17.7 27.9 19.3 9.5 1.2 190 1.1 198.6-.1 12.9-1.9 22.8-9.2 28.5-21l2.6-5.5v-269l-2.9-5.9c-3.6-7.3-9.6-13.5-16.8-17.3l-5.3-2.8-104-.2c-92.6-.2-104.5-.1-108.5 1.4zM455 165v110H283V55h172v110zm-78 122.5c13.5 7 10.5 28.1-4.5 31.5-10.1 2.3-20.4-6.4-20.5-17 0-4.5 3.6-10.8 7.9-13.7 4.1-2.7 12.6-3.1 17.1-.8z" />
      <path d="M357.9 132.4c-23.1 8.9-31.9 36.1-18.2 56.4 15.8 23.3 51.6 20.6 64.1-4.8 2.4-5 2.7-6.6 2.7-16.5 0-10.1-.2-11.4-2.8-16.3-4-7.5-8.7-12.4-15.9-16.3-5.8-3.1-7.1-3.4-16.3-3.6-6.7-.2-11.2.2-13.6 1.1zM89.3 47.2c-19.7 20.3-34.6 47.5-42.2 77.6-14.7 57.3 2.5 124.4 43 167.6l6.2 6.7 8.4-8.3c4.7-4.6 10.3-10.5 12.5-13.1l4.1-4.8-5-5.2c-13.7-14.1-25.8-35.6-31.9-56.7-7.5-25.8-7.5-56.2.1-82.5 5.7-19.6 17.1-40 30.5-54.8l6.2-6.8-12.3-12.7c-6.8-7-12.6-12.8-12.9-13-.3-.1-3.3 2.6-6.7 6zM625.4 54.8l-12.1 11.7 7.9 9.5c24.3 28.9 35 61.7 33.5 102-.9 23-5 39.6-14.5 58.5-6.7 13.4-12.6 21.9-22.5 32.3l-5 5.4 12.4 12.4c6.8 6.8 12.8 12.4 13.4 12.4.6 0 3.3-2.4 6.1-5.3C672.2 265 688.2 228.8 692 186c3.7-40.8-10.4-89-35.8-122.5C650.5 56.1 639 43 638.1 43c-.3.1-6 5.4-12.7 11.8zM175.8 93.2c-17 19.4-26.7 39.1-29.8 60.7-1.8 12.2-.8 30.3 2.4 42.4 2.8 11 10.2 27.3 16.5 36.5 5.8 8.6 13.9 18.2 15.4 18.2 1.3 0 22.7-21 22.7-22.3 0-.4-2.2-3.5-4.9-6.8-6.6-8.1-11.4-17.5-14.7-28.4-3.4-11.5-3.8-28.9-1-39.9 3.9-14.7 10.5-27.3 19.3-36.7l4.5-4.8-11.8-12.6C187.9 92.6 182.3 87 182 87c-.4 0-3.1 2.8-6.2 6.2zM542 100.5 530.6 112l3 3.2c8 8.5 15.2 22.8 18.5 36.5 2.7 11.2 2.2 27.8-1.1 39.3-2.9 10.1-9.8 23.2-16.6 31.4l-5.6 6.8 12.2 12.2 12.1 12.1 6.5-7c21.8-23.6 32.8-55.4 29.5-85-2.7-23.5-12-44.9-28.8-65.8-2.9-3.7-5.7-6.7-6.1-6.7-.4 0-5.9 5.2-12.2 11.5z" />
    </svg>